<svg width="50" height="10" viewBox="0 0 50 10" fill="none" xmlns="http://www.w3.org/2000/svg">
<g clip-path="url(#clip0_2070_22041)">
<path fill-rule="evenodd" clip-rule="evenodd" d="M42.0904 7.74823L41.9757 7.65374C41.697 7.4254 41.6478 7.00807 41.9019 6.74036L44.8855 3.46477C45.1232 3.19705 45.5576 3.14981 45.8363 3.3939L45.9511 3.48839C46.2298 3.71674 46.2789 4.13406 46.0248 4.40178L43.0412 7.67737C42.8035 7.94508 42.3855 7.97658 42.0904 7.74823Z" fill="url(#paint0_linear_2070_22041)"/>
<path opacity="0.4" fill-rule="evenodd" clip-rule="evenodd" d="M45.4671 5.01557L45.59 4.88172C45.5982 4.86597 45.6146 4.85022 45.6228 4.83447C45.4917 4.9762 45.3523 5.12581 45.2212 5.27542C45.3196 5.17306 45.4015 5.08644 45.4671 5.01557Z" fill="url(#paint1_radial_2070_22041)"/>
<path fill-rule="evenodd" clip-rule="evenodd" d="M46.0409 3.56702L43.0573 0.291427C42.8196 0.0237109 42.3852 -0.0235332 42.1065 0.220561L41.9918 0.315049C41.7131 0.543396 41.6639 0.960719 41.918 1.22844L44.4344 3.96859L44.4918 4.03158C45.2377 4.74812 44.9836 5.45678 44.795 5.75599C44.9426 5.59064 45.0901 5.42529 45.2295 5.27568C45.3606 5.12607 45.5 4.97647 45.6311 4.83473C45.7623 4.693 45.8852 4.55914 45.9672 4.47253C46.2541 4.20481 46.295 3.83473 46.0409 3.56702Z" fill="url(#paint2_linear_2070_22041)"/>
<path fill-rule="evenodd" clip-rule="evenodd" d="M45.877 7.74823L45.7623 7.65374C45.4836 7.4254 45.4344 7.00807 45.6885 6.74036L48.6721 3.46477C48.9098 3.19705 49.3442 3.14981 49.6229 3.3939L49.7377 3.48839C50.0164 3.71674 50.0656 4.13406 49.8115 4.40178L46.8278 7.67737C46.5901 7.94508 46.1721 7.97658 45.877 7.74823Z" fill="url(#paint3_linear_2070_22041)"/>
<path opacity="0.4" fill-rule="evenodd" clip-rule="evenodd" d="M49.2459 5.01557L49.3689 4.88172C49.377 4.86597 49.3934 4.85022 49.4016 4.83447C49.2705 4.9762 49.1311 5.12581 49 5.27542C49.0984 5.17306 49.1885 5.08644 49.2459 5.01557Z" fill="url(#paint4_radial_2070_22041)"/>
<path fill-rule="evenodd" clip-rule="evenodd" d="M49.8198 3.56702L46.8362 0.291427C46.5984 0.0237109 46.164 -0.0235332 45.8853 0.220561L45.7706 0.315049C45.4919 0.543396 45.4427 0.960719 45.6968 1.22844L48.2132 3.96859L48.2706 4.03158C49.0165 4.74812 48.7624 5.45678 48.5739 5.75599C48.7214 5.59064 48.8689 5.42529 49.0083 5.27568C49.1394 5.12607 49.2788 4.97647 49.4099 4.83473C49.5411 4.693 49.664 4.55914 49.746 4.47253C50.0329 4.20481 50.0739 3.83473 49.8198 3.56702Z" fill="url(#paint5_linear_2070_22041)"/>
<path fill-rule="evenodd" clip-rule="evenodd" d="M0.188629 7.71678C0.0738746 7.60654 0.00830078 7.44119 0.00830078 7.23646V0.756148C0.00830078 0.543549 0.0738746 0.378195 0.213219 0.244337C0.352563 0.110478 0.524694 0.0474863 0.746006 0.0474863C0.967317 0.0474863 1.16404 0.110478 1.29519 0.244337C1.43453 0.378195 1.5001 0.543549 1.5001 0.756148V6.73252H4.72142C5.18043 6.73252 5.41814 6.92938 5.41814 7.3152C5.41814 7.70103 5.18043 7.89788 4.72142 7.89788H0.705022C0.483711 7.89788 0.311579 7.83489 0.188629 7.71678ZM6.58207 7.76402C6.44273 7.63016 6.37715 7.45693 6.37715 7.23646V0.748274C6.37715 0.535675 6.44273 0.370321 6.58207 0.236463C6.72142 0.102604 6.89355 0.0396123 7.11486 0.0396123C7.33617 0.0396123 7.53289 0.102604 7.66404 0.236463C7.80338 0.370321 7.86896 0.535675 7.86896 0.748274V7.23646C7.86896 7.44906 7.80338 7.63016 7.66404 7.76402C7.52469 7.89788 7.34437 7.96087 7.11486 7.96087C6.90174 7.96087 6.72142 7.89788 6.58207 7.76402ZM16.3935 9.37032C16.3935 9.23646 16.3444 9.11048 16.2624 8.97662L15.8526 8.38607C15.6149 8.01599 15.328 7.76402 14.9755 7.65378C15.6558 7.36245 16.1804 6.90575 16.5411 6.27583C16.9099 5.65378 17.0903 4.89001 17.0903 4.01599C17.0903 3.20497 16.9345 2.4963 16.6231 1.89788C16.3116 1.30733 15.869 0.842762 15.287 0.512053C14.7132 0.197093 14.0247 0.0317383 13.246 0.0317383C12.4509 0.0317383 11.7706 0.181345 11.1886 0.512053C10.6149 0.842762 10.164 1.29945 9.85256 1.89788C9.54928 2.50418 9.38535 3.20497 9.38535 4.01599C9.38535 4.81914 9.54109 5.5278 9.85256 6.1341C10.164 6.72465 10.6067 7.18922 11.1886 7.51993C11.7706 7.83489 12.4509 8.00024 13.246 8.00024C13.5247 8.00024 13.746 8.04749 13.9181 8.12623C14.0903 8.20497 14.2296 8.33095 14.3362 8.50418L15.0083 9.57504C15.0903 9.69315 15.1968 9.78764 15.3116 9.85063C15.4345 9.91363 15.5657 9.94512 15.705 9.94512C15.8854 9.94512 16.0493 9.88213 16.1886 9.77977C16.328 9.67741 16.3935 9.53567 16.3935 9.37032ZM15.6067 4.00024C15.6067 4.91363 15.3935 5.62229 14.9755 6.11835C14.5575 6.61441 13.9755 6.85851 13.2296 6.85851C12.4837 6.85851 11.8935 6.61441 11.4755 6.11835C11.0575 5.62229 10.8444 4.92938 10.8444 4.00024C10.8444 3.07111 11.0575 2.37819 11.4755 1.88213C11.8935 1.39394 12.4755 1.14985 13.2296 1.14985C13.9837 1.14985 14.5575 1.38607 14.9755 1.88213C15.3935 2.37819 15.6067 3.07111 15.6067 4.00024ZM18.6886 7.23646C18.6886 7.45693 18.7542 7.63016 18.8935 7.76402C19.0165 7.89788 19.205 7.96087 19.4263 7.96875C19.6558 7.96875 19.8362 7.90575 19.9755 7.77189C20.1149 7.64591 20.1804 7.47268 20.1804 7.24434V4.86638H22.2378C23.1067 4.86638 23.7788 4.66166 24.2624 4.23646C24.746 3.81914 24.9919 3.22859 24.9919 2.48056C24.9919 1.73253 24.746 1.14197 24.2624 0.732526C23.7788 0.307329 23.1067 0.102604 22.2378 0.102604H19.4099C19.1886 0.102604 19.0165 0.165597 18.8854 0.275833C18.7542 0.393943 18.6886 0.559297 18.6886 0.771896V7.23646ZM23.5821 2.4963C23.5821 3.3467 23.0657 3.77977 22.0493 3.77977L20.1804 3.7719V1.21284H22.0493C23.0657 1.21284 23.5821 1.64591 23.5821 2.4963ZM32.6231 7.76402C32.7624 7.63804 32.8362 7.4963 32.8362 7.33095C32.8362 7.22859 32.8116 7.14197 32.7788 7.03961L29.5903 0.480557C29.5165 0.330951 29.4099 0.220715 29.2706 0.141974C29.1313 0.0711084 28.9837 0.0317383 28.8198 0.0317383C28.6558 0.0317383 28.5083 0.0632343 28.369 0.141974C28.2214 0.220715 28.1149 0.338825 28.0493 0.480557L24.869 7.03961C24.828 7.1341 24.8034 7.23646 24.8034 7.33095C24.8034 7.50418 24.869 7.65378 25.0165 7.76402C25.1558 7.87426 25.328 7.93725 25.5001 7.93725C25.6313 7.93725 25.746 7.90575 25.8526 7.84276C25.9591 7.77977 26.0411 7.68528 26.1067 7.55142L26.8034 6.07111H30.8362L31.5329 7.55142C31.5903 7.67741 31.6804 7.77977 31.787 7.84276C31.8935 7.90575 32.0165 7.93725 32.1313 7.93725C32.3198 7.93725 32.4837 7.87426 32.6231 7.76402ZM30.3444 4.96875H27.3034L28.8198 1.69316L30.3444 4.96875ZM38.5739 0.0474863C38.746 0.0474863 38.9017 0.110478 39.0411 0.244337C39.1804 0.378195 39.246 0.519927 39.246 0.708904C39.246 0.850636 39.1886 1.00024 39.0739 1.1341L36.4591 4.19709V7.26008C36.4591 7.48843 36.3935 7.66166 36.2542 7.79552C36.1149 7.92938 35.9427 7.98449 35.7296 7.98449C35.5083 7.98449 35.3198 7.9215 35.1804 7.79552C35.0411 7.66953 34.9755 7.4963 34.9755 7.26008V4.19709L32.3772 1.12623C32.2624 0.992368 32.205 0.850636 32.205 0.70103C32.205 0.527801 32.2706 0.370321 32.4099 0.236463C32.5493 0.102604 32.7132 0.0396123 32.8772 0.0396123C33.0739 0.0396123 33.2296 0.118352 33.369 0.283707L35.7214 3.08686L38.0657 0.283707C38.205 0.126226 38.3772 0.0474863 38.5739 0.0474863Z" fill="#4B4C4B"/>
</g>
<defs>
<linearGradient id="paint0_linear_2070_22041" x1="43.0223" y1="8.77059" x2="47.0981" y2="6.71344" gradientUnits="userSpaceOnUse">
<stop stop-color="#FFE81D"/>
<stop offset="0.707" stop-color="#E89D2C"/>
</linearGradient>
<radialGradient id="paint1_radial_2070_22041" cx="0" cy="0" r="1" gradientUnits="userSpaceOnUse" gradientTransform="translate(43.823 5.42494) scale(1.9985 2.19409)">
<stop offset="0.418" stop-color="#123F06" stop-opacity="0.01"/>
<stop offset="1" stop-color="#123F06"/>
</radialGradient>
<linearGradient id="paint2_linear_2070_22041" x1="41.1364" y1="2.89426" x2="45.4493" y2="6.35769" gradientUnits="userSpaceOnUse">
<stop offset="0.094" stop-color="#1FAEFF"/>
<stop offset="1" stop-color="#0D7CFF"/>
</linearGradient>
<linearGradient id="paint3_linear_2070_22041" x1="46.8089" y1="8.77059" x2="50.8848" y2="6.71344" gradientUnits="userSpaceOnUse">
<stop stop-color="#FFE81D"/>
<stop offset="0.707" stop-color="#E89D2C"/>
</linearGradient>
<radialGradient id="paint4_radial_2070_22041" cx="0" cy="0" r="1" gradientUnits="userSpaceOnUse" gradientTransform="translate(47.6052 5.42494) scale(1.99853 2.19409)">
<stop offset="0.418" stop-color="#123F06" stop-opacity="0.01"/>
<stop offset="1" stop-color="#123F06"/>
</radialGradient>
<linearGradient id="paint5_linear_2070_22041" x1="44.9152" y1="2.89426" x2="49.2281" y2="6.35769" gradientUnits="userSpaceOnUse">
<stop offset="0.094" stop-color="#1FAEFF"/>
<stop offset="1" stop-color="#0D7CFF"/>
</linearGradient>
<clipPath id="clip0_2070_22041">
<rect width="50" height="10" fill="white"/>
</clipPath>
</defs>
</svg>
