<svg width="60" height="34" viewBox="0 0 60 34" fill="none" xmlns="http://www.w3.org/2000/svg">
<path d="M37.0791 27.5244C42.894 27.5244 47.6079 22.8105 47.6079 16.9956C47.6079 11.1807 42.894 6.4668 37.0791 6.4668C31.2642 6.4668 26.5503 11.1807 26.5503 16.9956C26.5503 22.8105 31.2642 27.5244 37.0791 27.5244Z" fill="#FAC23C"/>
<path fill-rule="evenodd" clip-rule="evenodd" d="M29.9956 9.2002C30.1977 9.37597 30.3823 9.56053 30.5668 9.75388H29.4331C29.6137 9.56242 29.8013 9.37773 29.9956 9.2002Z" fill="#FAC23C"/>
<path d="M22.9209 27.5244C28.7358 27.5244 33.4497 22.8105 33.4497 16.9956C33.4497 11.1807 28.7358 6.4668 22.9209 6.4668C17.106 6.4668 12.3921 11.1807 12.3921 16.9956C12.3921 22.8105 17.106 27.5244 22.9209 27.5244Z" fill="#DD2C00"/>
<path fill-rule="evenodd" clip-rule="evenodd" d="M31.094 10.3604C31.2434 10.5361 31.384 10.7207 31.5159 10.9052H28.475C28.6079 10.7178 28.7487 10.536 28.8969 10.3604H31.094ZM31.9114 11.5205C32.0256 11.6962 32.1311 11.872 32.2278 12.0653H27.7719C27.8598 11.8808 27.9741 11.6962 28.0795 11.5117L31.9114 11.5205ZM32.5178 12.663C32.6057 12.8563 32.6848 13.0321 32.7551 13.2254H27.2446L27.4731 12.6718L32.5178 12.663ZM32.966 13.8319C33.0275 14.0076 33.0802 14.1922 33.1242 14.3768H26.8755C26.9201 14.1929 26.9729 14.0111 27.0337 13.8319H32.966ZM33.256 14.9832C33.2939 15.1663 33.3232 15.351 33.3439 15.5369H26.647L26.7349 14.9832H33.256ZM33.4142 16.1433L33.4494 16.697H26.5415L26.5679 16.1433H33.4142ZM33.4494 17.2946C33.447 17.4796 33.4352 17.6644 33.4142 17.8483H26.5767C26.5631 17.664 26.5543 17.4793 26.5503 17.2946H33.4494ZM33.3527 18.4635C33.3282 18.6458 33.2989 18.8275 33.2648 19.0084H26.7349C26.7006 18.8246 26.6713 18.64 26.647 18.4547L33.3527 18.4635ZM33.133 19.606C33.0826 19.795 33.0269 19.9826 32.966 20.1685H27.0249C26.97 19.9853 26.9202 19.8007 26.8755 19.6148H33.1242L33.133 19.606ZM32.7551 20.7661C32.6842 20.9528 32.608 21.1374 32.5266 21.3198H27.4731C27.3887 21.1375 27.3096 20.9529 27.2358 20.7661H32.7551ZM32.2278 21.9262C32.1279 22.1139 32.0224 22.2985 31.9114 22.4799H28.0795C27.9685 22.2985 27.863 22.1139 27.7631 21.9262H32.2278ZM31.5159 23.0863C31.3814 23.2754 31.2407 23.4601 31.094 23.64H28.8969C28.7502 23.4601 28.6095 23.2754 28.475 23.0863H31.5159Z" fill="#FAC23C"/>
<path fill-rule="evenodd" clip-rule="evenodd" d="M45.5429 18.7886V15.2116H44.541V16.442C44.4472 16.3429 44.3334 16.265 44.207 16.2135C44.073 16.1596 43.9296 16.1328 43.7852 16.1344C43.6377 16.131 43.4912 16.1599 43.3561 16.2191C43.221 16.2783 43.1005 16.3664 43.003 16.4771C42.7818 16.7557 42.6722 17.1066 42.6954 17.4615C42.6954 17.8482 42.7833 18.1733 42.9766 18.4458C43.1524 18.7095 43.4336 18.8501 43.7852 18.8501C43.9501 18.8496 44.1127 18.8105 44.2598 18.7358C44.3975 18.6484 44.5169 18.5349 44.6113 18.4019V18.7886H45.5429ZM44.418 17.0308C44.5059 17.1187 44.5498 17.2769 44.5498 17.479C44.5498 17.7076 44.5059 17.8657 44.4268 17.9712C44.389 18.0187 44.3409 18.0569 44.286 18.0828C44.2311 18.1087 44.171 18.1216 44.1104 18.1206C44.0523 18.121 43.995 18.1076 43.9431 18.0817C43.8912 18.0557 43.8461 18.0179 43.8116 17.9712C43.7237 17.8745 43.6885 17.7076 43.6885 17.5054C43.6885 17.2769 43.7237 17.1099 43.8028 17.022C43.8354 16.9755 43.8789 16.9377 43.9294 16.9117C43.9799 16.8856 44.036 16.8722 44.0928 16.8726C44.2246 16.8726 44.3389 16.9254 44.418 17.022V17.0308ZM41.421 16.6178V16.1959H40.4895V18.7886H41.4826V17.9097C41.4826 17.4966 41.5353 17.2154 41.6408 17.066C41.6733 17.0166 41.7177 16.9763 41.7699 16.9486C41.8221 16.9209 41.8805 16.9069 41.9396 16.9078C42.0099 16.9078 42.1066 16.9254 42.2208 16.9781L42.5284 16.275C42.3811 16.1895 42.2152 16.1412 42.045 16.1344C41.9196 16.1312 41.7964 16.1681 41.6935 16.2398C41.5747 16.3431 41.4815 16.4724 41.421 16.6178ZM39.883 17.0923C39.8827 16.9603 39.8589 16.8294 39.8127 16.7056C39.7741 16.5844 39.7044 16.4753 39.6106 16.3893C39.4822 16.2826 39.3273 16.2127 39.1624 16.1871C38.755 16.1224 38.3402 16.1194 37.932 16.1783C37.8005 16.1952 37.6728 16.2338 37.554 16.2926C37.4399 16.3515 37.3407 16.4356 37.264 16.5387C37.1852 16.6585 37.1313 16.793 37.1058 16.9342L38.055 17.0308C38.0775 16.9399 38.1301 16.8594 38.2044 16.8023C38.3176 16.7419 38.4455 16.7145 38.5735 16.7232C38.6966 16.7232 38.7845 16.7496 38.8372 16.7935C38.8899 16.8463 38.9163 16.9342 38.9163 17.0572C38.8014 17.1019 38.684 17.1401 38.5647 17.1714C38.3242 17.2355 38.0808 17.2883 37.8353 17.3296C37.5277 17.3912 37.308 17.4878 37.2025 17.6109C37.0829 17.7463 37.0199 17.9225 37.0267 18.103C37.0267 18.314 37.1058 18.4897 37.264 18.6304C37.4636 18.7872 37.7138 18.8653 37.9671 18.8501C38.2044 18.8501 38.4065 18.8149 38.5823 18.7358C38.7264 18.6726 38.8575 18.5832 38.969 18.4722C38.9769 18.5286 38.9886 18.5844 39.0042 18.6391C39.0233 18.6909 39.0468 18.7408 39.0745 18.7886H40.0061C39.9642 18.7045 39.9318 18.6161 39.9094 18.5249C39.8903 18.4294 39.8814 18.3322 39.883 18.2349V17.0923ZM38.4856 17.6812C38.6312 17.644 38.7749 17.6 38.9163 17.5494V17.7163C38.9191 17.8194 38.8981 17.9216 38.8548 18.0152C38.8089 18.101 38.7385 18.1714 38.6526 18.2173C38.5596 18.2732 38.4535 18.3035 38.345 18.3052C38.2548 18.3086 38.1666 18.2771 38.0989 18.2173C38.0739 18.1935 38.0541 18.1649 38.0405 18.1331C38.0269 18.1014 38.0198 18.0672 38.0198 18.0327C38.0203 17.9962 38.0283 17.9601 38.0435 17.9268C38.0586 17.8935 38.0805 17.8638 38.1077 17.8394C38.2212 17.7607 38.35 17.7068 38.4856 17.6812ZM36.6488 16.2662C36.5525 15.9293 36.3489 15.633 36.0688 15.4225C35.7508 15.2244 35.3794 15.1292 35.0053 15.1501C34.7622 15.1347 34.5184 15.1689 34.2888 15.2504C34.0592 15.332 33.8485 15.4593 33.6695 15.6246C33.3531 15.941 33.1949 16.398 33.1949 16.9869C33.1949 17.4263 33.2828 17.7954 33.4585 18.0855C33.6096 18.3408 33.8328 18.5456 34.1001 18.6743C34.3462 18.7886 34.6626 18.8501 35.0581 18.8501C35.3286 18.8586 35.598 18.8107 35.8491 18.7095C36.0575 18.6195 36.2391 18.4772 36.3764 18.2964C36.5226 18.0944 36.6245 17.8638 36.6752 17.6197L35.7084 17.3209C35.6764 17.5116 35.5945 17.6904 35.4711 17.8394C35.3657 17.9624 35.2075 18.0152 34.9966 18.0152C34.9003 18.021 34.804 18.0042 34.7155 17.9661C34.627 17.9279 34.5486 17.8694 34.4868 17.7954C34.3638 17.6548 34.311 17.3824 34.311 16.9869C34.311 16.6617 34.355 16.4332 34.4517 16.2838C34.5124 16.1857 34.5981 16.1055 34.7 16.0514C34.802 15.9974 34.9164 15.9714 35.0317 15.9762C35.1343 15.9748 35.2357 15.998 35.3274 16.0439C35.4192 16.0897 35.4986 16.1569 35.559 16.2398C35.6065 16.3129 35.6421 16.393 35.6645 16.4771L36.6488 16.2662ZM32.7818 16.9693L33.0982 16.2662C32.9501 16.1838 32.7843 16.1385 32.6148 16.1344C32.4894 16.1312 32.3662 16.1681 32.2633 16.2398C32.1413 16.3421 32.045 16.4716 31.9821 16.6178V16.1959H31.0505V18.7886H32.0524V17.9097C32.0524 17.4966 32.1051 17.2154 32.2018 17.066C32.2351 17.0153 32.2809 16.9742 32.3348 16.9464C32.3887 16.9187 32.4488 16.9054 32.5094 16.9078C32.5797 16.9078 32.6676 16.9254 32.7906 16.9781L32.7818 16.9693ZM30.5847 17.6285C30.5972 17.3407 30.5399 17.0543 30.4177 16.7935C30.3088 16.5823 30.1368 16.4102 29.9255 16.3014C29.6499 16.1768 29.3487 16.1196 29.0467 16.1344C28.8519 16.1239 28.6569 16.1519 28.473 16.2167C28.289 16.2815 28.1196 16.382 27.9744 16.5123C27.8451 16.6405 27.7439 16.7942 27.6773 16.9637C27.6107 17.1332 27.5802 17.3147 27.5877 17.4966C27.5877 17.7779 27.6493 18.0239 27.7811 18.2437C27.8981 18.4399 28.0689 18.5985 28.2733 18.7007C28.5282 18.8103 28.8045 18.8614 29.0818 18.8501C29.4773 18.8501 29.7849 18.7886 29.987 18.6743C30.2171 18.5446 30.4059 18.3527 30.5319 18.1206L29.5564 18.0327C29.508 18.0958 29.4484 18.1494 29.3806 18.1909C29.2945 18.2382 29.1976 18.2624 29.0994 18.2612C29.0279 18.2637 28.9567 18.2499 28.8913 18.221C28.8259 18.1921 28.7678 18.1488 28.7215 18.0943C28.6466 17.9918 28.6038 17.8695 28.5984 17.7427H30.5847V17.6285ZM29.4246 16.8463C29.5124 16.9342 29.5564 17.066 29.5828 17.2593H28.5984C28.6045 17.1341 28.6439 17.0127 28.7127 16.9078C28.7567 16.8501 28.8141 16.8039 28.88 16.7733C28.9458 16.7427 29.0181 16.7285 29.0906 16.732C29.2312 16.732 29.3367 16.7672 29.4246 16.8463ZM27.245 16.9254V16.1959H26.6913V15.2116L25.6982 15.7213V16.1959H25.3378V16.9254H25.6982V17.8394C25.6982 18.1206 25.7245 18.3315 25.7861 18.4634C25.8383 18.5873 25.9313 18.6897 26.0497 18.7534C26.164 18.8149 26.3398 18.8413 26.5858 18.8413C26.8056 18.8413 27.0253 18.8237 27.2801 18.7622L27.201 18.0767C27.102 18.1119 26.9984 18.1326 26.8934 18.1382C26.8143 18.1382 26.7528 18.1118 26.7177 18.0591C26.6926 17.9887 26.6836 17.9137 26.6913 17.8394V16.9254H27.245ZM18.4739 18.7886V15.2116H17.0238L16.4613 17.3824L15.9076 15.2116H14.4487V18.7886H15.354V16.0641L16.0571 18.7886H16.8744L17.5687 16.0641V18.7886H18.4739ZM19.0716 16.9342L20.0207 17.0308C20.0432 16.9399 20.0959 16.8594 20.1701 16.8023C20.2833 16.7419 20.4112 16.7145 20.5393 16.7232C20.6623 16.7232 20.7502 16.7496 20.8029 16.7935C20.8556 16.8463 20.882 16.9342 20.882 17.0572C20.7671 17.1019 20.6497 17.1401 20.5305 17.1714C20.2899 17.2355 20.0465 17.2883 19.801 17.3296C19.4934 17.3912 19.2737 17.4878 19.1682 17.6109C19.0628 17.7339 18.9925 17.9009 18.9925 18.103C18.9925 18.314 19.0716 18.4897 19.2297 18.6304C19.4293 18.7872 19.6795 18.8653 19.9328 18.8501C20.1701 18.8501 20.3723 18.8149 20.548 18.7358C20.6921 18.6726 20.8232 18.5832 20.9347 18.4722C20.9426 18.5286 20.9543 18.5844 20.9699 18.6391C20.989 18.6909 21.0126 18.7408 21.0402 18.7886H21.9718C21.93 18.7045 21.8975 18.6161 21.8751 18.5249C21.856 18.4294 21.8472 18.3322 21.8488 18.2349V17.0923C21.8484 16.9603 21.8246 16.8294 21.7785 16.7056C21.7398 16.5844 21.6701 16.4753 21.5763 16.3893C21.4479 16.2826 21.293 16.2127 21.1281 16.1871C20.7207 16.1224 20.3059 16.1194 19.8977 16.1783C19.7663 16.1952 19.6385 16.2338 19.5198 16.2926C19.4056 16.3515 19.3064 16.4356 19.2297 16.5387C19.1509 16.6585 19.0971 16.793 19.0716 16.9342ZM20.4514 17.6812C20.5969 17.644 20.7406 17.6 20.882 17.5494V17.7163C20.8848 17.8194 20.8638 17.9216 20.8205 18.0152C20.7746 18.101 20.7042 18.1714 20.6184 18.2173C20.5254 18.2732 20.4192 18.3035 20.3108 18.3052C20.2205 18.3086 20.1324 18.2771 20.0647 18.2173C20.0381 18.1943 20.0165 18.166 20.0014 18.1342C19.9863 18.1024 19.9779 18.0679 19.9768 18.0327C19.9768 17.9624 20.0119 17.9009 20.0647 17.8394C20.1808 17.7596 20.3126 17.7056 20.4514 17.6812ZM22.5255 16.5035C22.4261 16.6282 22.3733 16.7835 22.3761 16.9429C22.3761 17.1011 22.42 17.2418 22.5167 17.3648C22.6046 17.4878 22.7188 17.5757 22.8507 17.6285C23.086 17.7013 23.3271 17.7542 23.5713 17.7866C23.7183 17.8062 23.8626 17.8415 24.002 17.8921C24.0723 17.9273 24.1074 17.98 24.1074 18.0591C24.1076 18.0908 24.0996 18.122 24.0842 18.1497C24.0688 18.1774 24.0466 18.2007 24.0196 18.2173C23.9297 18.28 23.8214 18.311 23.712 18.3052C23.6095 18.3086 23.5085 18.281 23.4219 18.2261C23.3385 18.165 23.2769 18.0787 23.2462 17.98L22.2706 18.0679C22.3233 18.314 22.4464 18.5073 22.6573 18.6479C22.8507 18.7798 23.1846 18.8501 23.668 18.8501C23.9378 18.8589 24.2067 18.8141 24.459 18.7182C24.6299 18.6518 24.7769 18.5354 24.8808 18.3843C24.9703 18.255 25.0193 18.102 25.0215 17.9448C25.0203 17.7997 24.9742 17.6585 24.8896 17.5406C24.798 17.4095 24.6695 17.3086 24.5205 17.2505C24.2823 17.166 24.0342 17.1128 23.7823 17.0923C23.6382 17.0833 23.4961 17.0538 23.3604 17.0045C23.2989 16.9781 23.2725 16.9254 23.2725 16.8638C23.2711 16.8351 23.2768 16.8064 23.289 16.7804C23.3013 16.7543 23.3198 16.7317 23.3428 16.7144C23.418 16.6732 23.5035 16.6549 23.5889 16.6617C23.6944 16.6617 23.791 16.6881 23.8701 16.732C23.9315 16.7772 23.9751 16.8425 23.9932 16.9166L24.9336 16.8287C24.8804 16.6783 24.7966 16.5407 24.6875 16.4244C24.5841 16.3223 24.4574 16.2469 24.3184 16.2047C24.0944 16.1484 23.8635 16.1247 23.6329 16.1344C23.3953 16.1251 23.1578 16.1548 22.9298 16.2223C22.771 16.2756 22.6307 16.3732 22.5255 16.5035Z" fill="#FFFFFE"/>
</svg>
