<svg width="50" height="9" viewBox="0 0 50 9" fill="none" xmlns="http://www.w3.org/2000/svg">
<path d="M10.1088 7.41913H8.91699V3.20557H13.2074V7.41913H12.0158V4.02412H10.1088V7.41913Z" fill="#60B238"/>
<path d="M13.7856 4.36121V8.53298H14.8839V7.10633C15.252 7.5038 15.8515 7.53383 15.9961 7.53383C17.0435 7.53383 17.6863 6.86541 17.6863 5.89629C17.6863 4.88511 17.0505 4.24707 16.0178 4.24707C15.7575 4.24707 15.252 4.28921 14.833 4.72874H14.8114L14.8185 4.36121H13.7856ZM14.833 5.88417C14.833 5.02962 15.3605 4.86114 15.6928 4.86114C16.0178 4.86114 16.5451 5.02962 16.5451 5.88417C16.5451 6.41412 16.3213 6.91993 15.6928 6.91993C15.0499 6.91993 14.833 6.41412 14.833 5.88417Z" fill="#60B238"/>
<path d="M20.4089 7.05245C20.0046 7.43139 19.6151 7.53394 19.1813 7.53394C17.9967 7.53394 17.9531 6.64296 17.9531 6.27587V4.36133H19.0511V6.13118C19.0511 6.73936 19.2612 6.92005 19.6653 6.92005C20.3584 6.92005 20.4089 6.29993 20.4089 6.07718V4.36133H21.5074V7.41937H20.4089V7.05245Z" fill="#60B238"/>
<path d="M23.0824 6.13118H23.7542C24.2739 6.13118 24.3823 6.28781 24.3823 6.49256C24.3823 6.62487 24.3098 6.80556 23.7678 6.80556H23.0824V6.13118ZM21.9844 4.36133V7.41937H24.1658C24.9603 7.41937 25.5091 7.26291 25.5091 6.6369C25.5091 6.15532 25.2415 5.94469 24.6351 5.83644V5.81826C25.0325 5.76409 25.3794 5.5172 25.3794 5.102C25.3794 4.36133 24.5125 4.36133 24.1729 4.36133H21.9844ZM23.0824 4.97566H23.6742C23.985 4.97566 24.252 5.02377 24.252 5.27637C24.252 5.55355 23.8332 5.55952 23.6526 5.55952H23.0824V4.97566Z" fill="#60B238"/>
<path d="M26.8955 5.3486C26.8955 4.89713 27.3721 4.86114 27.5673 4.86114C27.6902 4.86114 28.1449 4.86719 28.1598 5.2644C28.1598 5.29451 28.1598 5.31857 28.1598 5.3486C28.1381 5.64957 27.8491 5.58943 27.0404 5.69171C26.3754 5.78197 25.6748 5.95037 25.6748 6.6489C25.6748 6.90176 25.7832 7.53383 26.9534 7.53383C27.4015 7.53383 27.8928 7.41925 28.1812 7.11845H28.2035L28.297 7.41925H29.4526V7.36525C29.2432 7.32302 29.2287 7.11845 29.2358 6.78727L29.2575 5.39056C29.2649 5.03568 29.2287 4.24707 27.5747 4.24707C27.1773 4.24707 25.8988 4.28307 25.8482 5.3486H26.8955ZM28.1669 6.15521C28.1669 6.76927 27.6323 6.91993 27.3654 6.91993C27.1627 6.91993 26.8016 6.85347 26.8016 6.5647C26.8016 6.22141 27.2132 6.1552 27.4447 6.12509C27.8708 6.06486 27.8346 6.08303 28.1669 5.96249V6.15521Z" fill="#60B238"/>
<path d="M29.3804 4.97566V4.36133H32.9051V4.97566H31.6917V7.41937H30.5939V4.97566H29.3804Z" fill="#60B238"/>
<path d="M34.307 4.02412H37.0444V3.20557H33.1147V7.41913H35.5273C36.6977 7.41913 37.4486 7.01007 37.4486 6.14903C37.4486 4.80087 35.9463 4.77058 35.5273 4.77058H34.307V4.02412ZM34.307 5.58931H35.2962C35.5858 5.58931 36.1632 5.61951 36.1632 6.12497C36.1632 6.52235 35.7441 6.60049 35.2749 6.60049H34.307V5.58931Z" fill="#60B238"/>
<path d="M38.8794 5.3486C38.8794 4.89713 39.3563 4.86114 39.5508 4.86114C39.6738 4.86114 40.1291 4.86719 40.1437 5.2644C40.1437 5.29451 40.1437 5.31857 40.1437 5.3486C40.1217 5.64957 39.833 5.58943 39.0233 5.69171C38.3592 5.78197 37.6587 5.95037 37.6587 6.6489C37.6587 6.90176 37.7668 7.53383 38.937 7.53383C39.3848 7.53383 39.876 7.41925 40.165 7.11845H40.1864L40.2805 7.41925H41.4361V7.36525C41.2274 7.32302 41.2123 7.11845 41.2197 6.78727L41.2413 5.39056C41.2485 5.03568 41.2123 4.24707 39.558 4.24707C39.1612 4.24707 37.8823 4.28307 37.8318 5.3486H38.8794ZM40.1505 6.15521C40.1505 6.76927 39.6159 6.91993 39.3489 6.91993C39.1466 6.91993 38.7855 6.85347 38.7855 6.5647C38.7855 6.22141 39.1968 6.1552 39.4278 6.12509C39.8544 6.06486 39.8181 6.08303 40.1505 5.96249V6.15521Z" fill="#60B238"/>
<path d="M42.8085 7.41937H41.7104V4.36133H42.8085V5.51123H44.1304V4.36133H45.2285V7.41937H44.1304V6.12521H42.8085V7.41937Z" fill="#60B238"/>
<path d="M48.0023 4.36133H49.2226L47.7133 5.79394L49.2951 7.41937H48.0091L46.8246 6.08315H46.8033V7.41937H45.7056V4.36133H46.8033V5.58955H46.8246L48.0023 4.36133Z" fill="#60B238"/>
<path d="M0.943359 7.4303H3.69348V4.68018H0.943359V7.4303Z" fill="#373435"/>
<path d="M6.52634 1.85132C6.52634 2.78647 6.52634 5.04185 6.52634 5.977C6.26514 5.977 6.21913 5.977 5.9653 5.977C5.72307 3.93664 4.44103 2.65495 2.40032 2.41271C2.40032 2.15888 2.40032 2.11305 2.40032 1.85132C3.33556 1.85132 5.59111 1.85132 6.52634 1.85132ZM0.946289 0.397461V3.82048H1.67353C3.58727 3.82048 4.55763 4.79066 4.55763 6.7038V7.43103H7.98037V0.397461H0.946289Z" fill="#60B238"/>
</svg>
