<svg width="48" height="34" viewBox="0 0 48 34" fill="none" xmlns="http://www.w3.org/2000/svg">
<path d="M17.5996 24.0981L20.0377 9.98047H23.8472L21.4853 24.0981H17.5996Z" fill="#3C58BF"/>
<path d="M17.5996 24.0981L20.7234 9.98047H23.8472L21.4853 24.0981H17.5996Z" fill="#293688"/>
<path d="M35.2763 10.1372C34.5144 9.82349 33.2953 9.50977 31.7715 9.50977C27.962 9.50977 25.2191 11.4705 25.2191 14.2941C25.2191 16.4117 27.1239 17.5098 28.6477 18.2156C30.1715 18.9215 30.6287 19.3921 30.6287 20.0196C30.6287 20.9607 29.4096 21.4313 28.343 21.4313C26.8191 21.4313 25.981 21.196 24.6858 20.647L24.1525 20.4117L23.6191 23.6274C24.5334 24.0196 26.2096 24.4117 27.962 24.4117C32.0001 24.4117 34.6668 22.4509 34.6668 19.4706C34.6668 17.8235 33.6763 16.5686 31.3906 15.549C30.0191 14.8431 29.181 14.4509 29.181 13.7451C29.181 13.1176 29.8668 12.4902 31.3906 12.4902C32.6858 12.4902 33.6001 12.7255 34.2858 13.0392L34.6668 13.196L35.2763 10.1372Z" fill="#3C58BF"/>
<path d="M35.2763 10.1372C34.5144 9.82349 33.2953 9.50977 31.7715 9.50977C27.962 9.50977 25.9049 11.4705 25.9049 14.2941C25.9049 16.4117 27.1239 17.5098 28.6477 18.2156C30.1715 18.9215 30.6287 19.3921 30.6287 20.0196C30.6287 20.9607 29.4096 21.4313 28.343 21.4313C26.8191 21.4313 25.981 21.196 24.6858 20.647L24.1525 20.4117L23.6191 23.6274C24.5334 24.0196 26.2096 24.4117 27.962 24.4117C32.0001 24.4117 34.6668 22.4509 34.6668 19.4706C34.6668 17.8235 33.6763 16.5686 31.3906 15.549C30.0191 14.8431 29.181 14.4509 29.181 13.7451C29.181 13.1176 29.8668 12.4902 31.3906 12.4902C32.6858 12.4902 33.6001 12.7255 34.2858 13.0392L34.6668 13.196L35.2763 10.1372Z" fill="#293688"/>
<path d="M41.8285 9.98047C40.9143 9.98047 40.2285 10.0589 39.8476 11.0001L34.1333 24.0981H38.2476L39.0095 21.7452H43.8857L44.3428 24.0981H48L44.8 9.98047H41.8285ZM40.0762 19.3922C40.3047 18.6864 41.6 15.2354 41.6 15.2354C41.6 15.2354 41.9047 14.3726 42.1333 13.8236L42.3619 15.1569C42.3619 15.1569 43.1238 18.6864 43.2762 19.4707H40.0762V19.3922Z" fill="#3C58BF"/>
<path d="M42.7428 9.98047C41.8285 9.98047 41.1428 10.0589 40.7619 11.0001L34.1333 24.0981H38.2476L39.0095 21.7452H43.8857L44.3428 24.0981H48L44.8 9.98047H42.7428ZM40.0762 19.3922C40.3809 18.6079 41.6 15.2354 41.6 15.2354C41.6 15.2354 41.9047 14.3726 42.1333 13.8236L42.3619 15.1569C42.3619 15.1569 43.1238 18.6864 43.2762 19.4707H40.0762V19.3922Z" fill="#293688"/>
<path d="M10.5903 19.8625L10.2093 17.8233C9.5236 15.4704 7.31407 12.8821 4.87598 11.6272L8.30455 24.1762H12.4188L18.5903 10.0586H14.476L10.5903 19.8625Z" fill="#3C58BF"/>
<path d="M10.5903 19.8625L10.2093 17.8233C9.5236 15.4704 7.31407 12.8821 4.87598 11.6272L8.30455 24.1762H12.4188L18.5903 10.0586H15.2379L10.5903 19.8625Z" fill="#293688"/>
<path d="M0 9.98047L0.685714 10.1373C5.5619 11.3138 8.91428 14.2942 10.2095 17.8236L8.83809 11.1569C8.60952 10.2158 7.92381 9.98047 7.08571 9.98047H0Z" fill="#FFBC00"/>
<path d="M0 9.98047C4.87619 11.1569 8.91428 14.2158 10.2095 17.7452L8.91428 12.1765C8.68571 11.2354 7.92381 10.6864 7.08571 10.6864L0 9.98047Z" fill="#F7981D"/>
<path d="M0 9.98047C4.87619 11.1569 8.91428 14.2158 10.2095 17.7452L9.29524 14.6864C9.06667 13.7452 8.7619 12.804 7.69524 12.4118L0 9.98047Z" fill="#ED7C00"/>
<path d="M14.3998 19.3925L11.8093 16.7258L10.5902 19.7062L10.2855 17.7454C9.59977 15.3925 7.39024 12.8042 4.95215 11.5493L8.38072 24.0983H12.495L14.3998 19.3925ZM21.4855 24.0983L18.2093 20.6474L17.5998 24.0983H21.4855ZM30.2474 19.2356C30.5521 19.5493 30.7045 19.7846 30.6283 20.0983C30.6283 21.0395 29.4093 21.5101 28.3426 21.5101C26.8188 21.5101 25.9807 21.2748 24.6855 20.7258L24.1521 20.4905L23.6188 23.7062C24.5331 24.0983 26.2093 24.4905 27.9617 24.4905C30.3998 24.4905 32.3807 23.7846 33.5236 22.5297L30.2474 19.2356ZM34.6664 24.0983H38.2474L39.0093 21.7454H43.8855L44.3426 24.0983H47.9998L46.7045 18.3728L42.1331 13.8238L42.3617 15.0787C42.3617 15.0787 43.1236 18.6081 43.276 19.3925H40.076C40.3807 18.6081 41.5998 15.2356 41.5998 15.2356C41.5998 15.2356 41.9045 14.3728 42.1331 13.8238" fill="#051244"/>
</svg>
