<svg width="14" height="9" viewBox="0 0 14 9" fill="none" xmlns="http://www.w3.org/2000/svg">
<path d="M7.00296 5.80431L1.76537 0.566941C1.6215 0.42273 1.42914 0.343397 1.22403 0.343397C1.01881 0.343397 0.826569 0.42273 0.682471 0.566941L0.223772 1.02587C0.0794468 1.16985 -3.14975e-07 1.36232 -3.0601e-07 1.56743C-2.97044e-07 1.77254 0.0794469 1.96478 0.223772 2.10888L6.45958 8.34479C6.60413 8.48946 6.79728 8.56868 7.00262 8.56811C7.20886 8.56868 7.40179 8.48958 7.54646 8.34479L13.7762 2.11468C13.9206 1.97058 14 1.77834 14 1.57312C14 1.36801 13.9206 1.17577 13.7762 1.03156L13.3175 0.572746C13.019 0.274193 12.533 0.274193 12.2345 0.572746L7.00296 5.80431Z" fill="#59BF9A"/>
</svg>
