<svg width="8" height="5" viewBox="0 0 8 5" fill="none" xmlns="http://www.w3.org/2000/svg">
<path d="M4.00169 3.22647L1.00878 0.233687C0.926569 0.15128 0.81665 0.105947 0.699447 0.105947C0.582179 0.105947 0.472325 0.15128 0.389984 0.233687L0.12787 0.495931C0.0453984 0.578207 0 0.688191 0 0.805394C0 0.922597 0.0453984 1.03245 0.12787 1.11479L3.69119 4.67817C3.77379 4.76084 3.88416 4.80611 4.0015 4.80578C4.11935 4.80611 4.22959 4.76091 4.31226 4.67817L7.87213 1.11811C7.9546 1.03577 8 0.925915 8 0.808646C8 0.691443 7.9546 0.581589 7.87213 0.499183L7.61002 0.237004C7.43941 0.0664024 7.16169 0.0664024 6.99115 0.237004L4.00169 3.22647Z" fill="#5CC29A"/>
</svg>
