<svg width="8" height="6" viewBox="0 0 8 6" fill="none" xmlns="http://www.w3.org/2000/svg">
<path d="M4.00169 3.77053L1.00878 0.777754C0.926569 0.695348 0.81665 0.650015 0.699447 0.650015C0.582179 0.650015 0.472325 0.695348 0.389984 0.777754L0.12787 1.04C0.0453982 1.12227 -1.79986e-07 1.23226 -1.74863e-07 1.34946C-1.6974e-07 1.46666 0.0453982 1.57652 0.12787 1.65886L3.69119 5.22224C3.77379 5.30491 3.88416 5.35018 4.0015 5.34985C4.11935 5.35018 4.22959 5.30497 4.31226 5.22224L7.87213 1.66218C7.9546 1.57984 8 1.46998 8 1.35271C8 1.23551 7.9546 1.12566 7.87213 1.04325L7.61002 0.781071C7.43941 0.610469 7.16169 0.61047 6.99115 0.781071L4.00169 3.77053Z" fill="black"/>
</svg>
