<svg width="7" height="11" viewBox="0 0 7 11" fill="none" xmlns="http://www.w3.org/2000/svg">
<path d="M4.46335 5.49789L0.722376 9.23903C0.619368 9.34179 0.562701 9.47919 0.562701 9.62569C0.562701 9.77228 0.619368 9.90959 0.722376 10.0125L1.05018 10.3402C1.15303 10.4433 1.29051 10.5 1.43701 10.5C1.58351 10.5 1.72083 10.4433 1.82376 10.3402L6.27799 5.88602C6.38132 5.78276 6.4379 5.6448 6.4375 5.49813C6.4379 5.35081 6.3814 5.21301 6.27799 5.10968L1.8279 0.659839C1.72498 0.55675 1.58766 0.500001 1.44107 0.500001C1.29457 0.500001 1.15725 0.55675 1.05425 0.659839L0.726522 0.987482C0.51327 1.20073 0.51327 1.54789 0.726522 1.76106L4.46335 5.49789Z" fill="black"/>
</svg>
